<svg width="505" height="313" viewBox="0 0 505 313" fill="none" xmlns="http://www.w3.org/2000/svg">
<path d="M504.354 169.078C504.05 148.688 404.042 134.055 280.899 136.359C157.756 138.662 58.2939 157.088 58.5975 177.41C58.5975 178.223 58.7189 178.833 59.0833 179.646C62.1193 187.504 57.8688 196.717 50.7037 198.614C18.8857 206.878 -0.180871 217.175 0.00129365 228.014C0.244179 244.272 44.1458 257.752 109.543 264.323C115.919 265.001 120.533 271.368 120.533 278.955V279.091C120.837 299.617 204.268 314.655 306.827 312.759C409.385 310.862 492.331 292.639 491.966 272.114C491.784 261.681 469.985 252.536 434.949 246.439C429.848 245.626 428.695 237.294 433.31 234.584C441.385 229.775 445.757 224.694 445.636 219.546C445.575 215.414 442.721 211.552 437.56 207.894C433.31 204.914 434.645 197.259 439.503 196.378C479.822 188.994 504.475 179.239 504.354 169.078Z" fill="#3889FF"/>
<path d="M408.535 64.1457C408.535 99.4393 396.209 128.297 387.647 128.297C379.085 128.297 367.791 89.7522 367.791 54.4586C367.791 19.1651 381.636 -3.59623 391.594 0.468287C402.767 5.07474 408.535 28.8522 408.535 64.1457Z" fill="url(#paint0_linear)"/>
<path d="M270.151 157.223H204.208V82.0296L237.179 30.2748L270.151 82.0296V157.223Z" fill="url(#paint1_linear)"/>
<path d="M270.151 157.223H347.935V82.0295H270.151V157.223Z" fill="#F7CE8F"/>
<path d="M282.599 157.223H358.319V95.7812H282.599V157.223Z" fill="url(#paint2_linear)"/>
<path d="M358.318 157.223H436.103V95.7812H358.318V157.223Z" fill="url(#paint3_linear)"/>
<path d="M292.982 157.223H347.935V109.668H292.982V157.223Z" fill="#9D9D9C"/>
<path d="M237.179 30.3425H314.963L347.935 82.0974H270.151L237.179 30.3425Z" fill="url(#paint4_linear)"/>
<path d="M292.982 157.223H296.201V109.668H292.982V157.223Z" fill="#F7CE8F"/>
<path d="M296.2 110.684H347.996V109.668H296.2V110.684Z" fill="#415680"/>
<path d="M296.2 114.546H347.996V113.53H296.2V114.546Z" fill="#415680"/>
<path d="M296.2 118.475H347.996V117.459H296.2V118.475Z" fill="#415680"/>
<path d="M296.2 122.336H347.996V121.32H296.2V122.336Z" fill="#415680"/>
<path d="M296.2 126.197H347.996V125.181H296.2V126.197Z" fill="#415680"/>
<path d="M296.2 130.059H347.996V129.042H296.2V130.059Z" fill="#415680"/>
<path d="M296.2 133.988H347.996V132.971H296.2V133.988Z" fill="#415680"/>
<path d="M296.2 137.849H347.996V136.833H296.2V137.849Z" fill="#415680"/>
<path d="M296.2 141.71H347.996V140.694H296.2V141.71Z" fill="#415680"/>
<path d="M296.2 145.572H347.996V144.555H296.2V145.572Z" fill="#415680"/>
<path d="M296.2 149.501H347.996V148.417H296.2V149.501Z" fill="#415680"/>
<path d="M296.2 153.362H347.996V152.346H296.2V153.362Z" fill="#415680"/>
<path d="M296.2 157.223H347.996V156.207H296.2V157.223Z" fill="#415680"/>
<path d="M218.113 143.404H231.957V95.849H218.113V143.404Z" fill="#2E3E5C"/>
<path d="M218.113 143.404H221.331V95.849H218.113V143.404Z" fill="#F7CE8F"/>
<path d="M242.341 157.223H256.185V95.7812H242.341V157.223Z" fill="#2E3E5C"/>
<path d="M242.341 157.223H245.559V95.7812H242.341V157.223Z" fill="#F7CE8F"/>
<path d="M297.354 82.0296H320.793V46.4651H297.354V82.0296Z" fill="#F7CE8F"/>
<path d="M302.09 82.0296H315.935V56.4231H302.09V82.0296Z" fill="#2E3E5C"/>
<path d="M312.717 82.0296H315.996V56.4231H312.717V82.0296Z" fill="white"/>
<path d="M297.354 46.5328H275.92L297.354 82.0973V46.5328Z" fill="url(#paint5_linear)"/>
<path d="M224.428 143.404H231.957V103.639H224.428V143.404Z" fill="#36A9E1"/>
<path d="M248.656 157.223H256.246V103.639H248.656V157.223Z" fill="#36A9E1"/>
<path d="M245.559 111.701H256.246V109.601H245.559V111.701Z" fill="white"/>
<path d="M221.331 111.701H232.018V109.601H221.331V111.701Z" fill="white"/>
<path d="M305.187 82.0296H312.717V64.2135H305.187V82.0296Z" fill="#36A9E1"/>
<path d="M168.564 157.223H167.167V140.288H169.353L168.564 157.223Z" fill="white"/>
<path d="M176.883 157.223H175.608L173.24 140.288H175.425L176.883 157.223Z" fill="white"/>
<path d="M176.883 125.723H175.729L173.179 140.22H175.365L176.883 125.723Z" fill="white"/>
<path d="M167.228 143.404H175.426V140.288H167.228V143.404Z" fill="white"/>
<path d="M171.357 143.404H177.369V140.288H171.357V143.404Z" fill="white"/>
<path d="M133.224 157.223H131.828V140.288H134.014L133.224 157.223Z" fill="white"/>
<path d="M141.543 157.223H140.268L137.9 140.288H140.086L141.543 157.223Z" fill="white"/>
<path d="M141.543 125.723H140.389L137.839 140.22H140.025L141.543 125.723Z" fill="white"/>
<path d="M131.888 143.404H140.086V140.288H131.888V143.404Z" fill="white"/>
<path d="M128.852 143.404H171.357V140.288H128.852V143.404Z" fill="white"/>
<path d="M136.199 128.907H178.704L179.19 125.723H136.685L136.199 128.907Z" fill="white"/>
<path d="M135.41 133.717H177.915L178.401 130.533H135.896L135.41 133.717Z" fill="white"/>
<path d="M155.205 53.9844C154.112 52.1554 152.716 50.5296 151.076 49.378C149.437 48.2263 147.554 47.4134 145.611 47.0747C138.264 45.8554 140.814 36.6425 134.439 34.136C127.698 31.5618 127.152 37.7263 109.968 26.6167C105.171 23.5005 96.2448 22.5521 92.2979 28.4457C89.9905 31.9005 89.444 36.9134 90.1119 41.1134C90.7799 45.1102 93.3909 50.936 90.537 54.5263C87.8045 57.9812 83.0075 56.8973 79.7285 59.0651C76.3281 61.3005 75.053 65.7715 74.9923 69.9715C74.8708 79.7941 78.5748 90.4296 84.0398 97.9489C95.4554 113.597 116.101 117.323 132.374 110.617C141.907 106.62 149.619 98.4908 153.93 88.0586C158.059 78.0328 160.61 64.0102 155.205 53.9844Z" fill="url(#paint6_linear)"/>
<path d="M129.702 33.5263C126.059 33.7296 122.294 34.6102 109.968 26.6844C105.171 23.5683 96.2448 22.6199 92.2979 28.5134C89.9905 31.9683 89.444 36.9812 90.1119 41.1812C90.7799 45.1779 93.3909 51.0038 90.537 54.5941C87.8045 58.0489 83.0075 56.965 79.7285 59.1328C76.3889 61.3683 75.053 65.8392 74.9923 70.0392C74.8708 79.8618 78.5748 90.4973 84.0398 98.0166C84.5863 98.7618 85.1328 99.4392 85.6792 100.117C106.325 112.92 91.3871 73.9005 98.2486 66.7876C102.621 62.3167 111.122 68.6844 115.008 65.5005C116.951 63.9425 116.769 60.8263 115.251 58.4554C110.636 51.1392 103.167 43.4167 106.81 38.9457C108.753 36.5747 112.7 37.8618 120.108 37.9296C128.731 37.8618 133.163 35.3554 129.702 33.5263Z" fill="url(#paint7_linear)"/>
<path d="M120.412 157.223H116.161L115.979 125.52L111.364 76.1361L112.457 74.5103L118.53 122.675L122.841 90.9715L123.873 92.1909L119.623 128.23L120.412 157.223Z" fill="#2E3E5C"/>
<path d="M131.402 88.3973L121.505 104.994V103.639L130.795 87.7876L131.402 88.3973Z" fill="#2E3E5C"/>
<path d="M114.218 101.336L105.778 88.3295L106.264 87.7198L114.401 99.7102L114.218 101.336Z" fill="#2E3E5C"/>
<path d="M116.283 73.6296L113.793 89.2102L113.247 87.6522L115.736 73.3586L116.283 73.6296Z" fill="#2E3E5C"/>
<path d="M490.813 157.223C488.687 151.262 477.879 139.61 464.217 142.794C449.279 146.249 446.061 138.73 439.867 135.546C428.634 129.788 423.048 144.013 416.065 136.697C406.228 126.468 398.273 125.452 391.958 134.868C382.85 148.417 367.912 133.446 364.512 157.223H490.813Z" fill="url(#paint8_linear)"/>
<path d="M465.431 157.223H408.535C408.839 137.375 413.454 150.11 413.454 150.11C413.454 150.11 414.972 135.614 418.311 135.004C421.469 134.462 422.926 149.23 422.926 149.23C422.926 149.23 426.327 128.094 430.881 127.281C434.828 126.536 431.731 146.859 431.731 146.859C433.37 145.504 435.374 144.759 437.378 144.623C441.082 144.42 439.564 148.552 439.564 148.552C439.564 148.552 444.239 139.407 447.275 139.543C451.101 139.746 448.49 149.026 448.49 149.026C448.49 149.026 451.283 145.978 454.258 145.504C460.027 144.691 453.894 153.091 453.894 153.091C453.894 153.091 458.023 151.194 465.067 149.975C471.928 148.891 470.471 153.362 465.431 157.223Z" fill="url(#paint9_linear)"/>
<path d="M457.659 46.3973C457.841 34.6102 448.611 30.8844 439.685 34.2038C432.945 36.7102 432.399 37.7941 415.275 26.6844C410.478 23.5683 401.613 22.6199 397.605 28.5134C395.298 31.9683 394.691 36.9812 395.298 41.1812C395.905 45.1779 398.516 51.0038 395.662 54.5941C392.93 58.0489 388.133 56.965 384.793 59.1328C381.393 61.3683 380.057 65.8392 379.996 70.0392C379.814 79.8618 383.093 90.836 388.861 98.0166C400.581 112.446 421.105 118.001 440.11 112.513C482.008 100.388 466.281 74.7134 461.363 67.8715C456.08 60.4876 457.537 54.5263 457.659 46.3973Z" fill="url(#paint10_linear)"/>
<path d="M440.171 34.0005C439.989 34.0683 439.807 34.136 439.625 34.2038C432.884 36.7102 432.338 37.7941 415.215 26.6844C410.418 23.5683 401.552 22.6199 397.545 28.5134C395.176 31.9683 394.63 36.9812 395.237 41.1812C395.844 45.1779 398.455 51.0038 395.602 54.5941C392.869 58.0489 388.072 56.965 384.732 59.1328C381.332 61.3683 379.996 65.8392 379.935 70.0392C379.753 79.8618 383.396 90.4973 388.861 98.0166C389.59 99.0328 390.319 99.9812 391.108 100.862C409.871 113.868 390.379 85.7554 405.863 74.1715C413.514 68.4134 428.33 62.3844 421.894 53.2392C417.218 46.5328 413.636 43.9586 415.032 40.3005C415.822 38.2683 418.129 36.3715 425.416 37.8618C435.374 39.8941 442.6 35.8973 440.171 34.0005Z" fill="url(#paint11_linear)"/>
<path d="M424.019 157.223H428.27L427.905 125.52L428.816 73.6973L427.723 72.0715L425.416 122.743L419.161 91.6489L418.129 92.8683L424.262 128.365L424.019 157.223Z" fill="#2E3E5C"/>
<path d="M435.01 80.8779L427.784 93.1392V95.5779L435.738 81.6231L435.01 80.8779Z" fill="#2E3E5C"/>
<path d="M424.323 76.2715L427.48 83.5199V85.0779L423.837 76.4747L424.323 76.2715Z" fill="#2E3E5C"/>
<path d="M414.729 95.7135L420.012 101.133L420.437 102.488L414.243 96.0522L414.729 95.7135Z" fill="#2E3E5C"/>
<path d="M405.621 157.223C404.163 153.091 402.645 150.042 401.431 150.381C400.216 150.72 399.852 153.497 400.034 157.223H405.621Z" fill="#3FC3D1"/>
<path d="M396.573 157.223C394.448 155.665 392.14 154.039 390.197 153.836C388.193 153.633 387.768 155.394 387.526 157.223H396.573Z" fill="#3FC3D1"/>
<path d="M431.67 191.094C431.67 178.088 363.662 167.52 279.745 167.52C195.828 167.52 127.881 178.088 127.881 191.094C127.881 191.568 127.941 192.042 128.184 192.517C130.127 197.597 127.213 203.423 122.294 204.507C100.556 209.384 87.4402 215.752 87.4402 222.662C87.4402 233.094 117.254 242.171 161.702 247.184C166.014 247.658 169.111 251.858 169.05 256.668V256.736C169.05 269.81 225.764 280.513 295.654 280.513C365.544 280.513 422.258 269.878 422.258 256.736C422.258 250.029 407.503 244 383.7 239.665C380.239 239.055 379.51 233.771 382.729 232.078C388.254 229.097 391.29 225.913 391.29 222.594C391.29 219.952 389.408 217.446 385.886 215.075C383.032 213.11 384.004 208.233 387.343 207.691C414.789 203.491 431.67 197.597 431.67 191.094Z" fill="#1DCBDD" stroke="white" stroke-width="15" stroke-miterlimit="10"/>
<path d="M270.151 153.362C272.276 165.962 275.252 175.242 289.643 189.604C304.034 203.965 311.199 204.642 317.817 209.994C324.436 215.346 325.225 222.594 327.776 221.375C331.48 219.613 330.508 225.913 334.698 224.83C338.888 223.746 325.529 206.472 320.246 200.646C314.174 193.939 305.248 185.268 302.333 178.765C298.994 171.313 294.683 152.752 288.61 145.233C280.595 135.342 268.147 141.439 270.151 153.362Z" fill="#F9AE95"/>
<path d="M295.654 128.907C295.654 128.907 287.699 123.42 290.978 117.188C294.257 110.955 311.502 110.142 308.284 124.436C305.005 138.797 295.654 128.907 295.654 128.907Z" fill="#473830"/>
<path d="M185.627 27.4294C188.42 27.5649 190.606 30.2746 190.424 33.4585C190.242 35.6262 190.727 39.0133 193.521 42.9424C198.439 49.6488 201.779 58.7262 204.268 75.052C206.758 91.3778 223.456 95.6456 234.872 100.591C246.348 105.4 251.752 121.252 244.284 132.091C236.876 142.929 221.817 136.9 216.17 131.413C210.462 125.926 190.849 106.417 189.27 99.0327C187.631 91.6488 182.53 42.4004 180.769 39.1488C179.008 35.9649 165.103 28.6488 165.832 25.9391C166.56 23.2294 174.272 25.1262 179.372 26.752C181.619 27.4294 183.744 27.294 185.627 27.4294Z" fill="#F9AE95"/>
<path opacity="0.19" d="M185.627 27.4294C188.42 27.5649 190.606 30.2746 190.424 33.4585C190.242 35.6262 190.727 39.0133 193.521 42.9424C198.439 49.6488 201.779 58.7262 204.268 75.052C206.758 91.3778 223.456 95.6456 234.872 100.591C246.348 105.4 251.752 121.252 244.284 132.091C236.876 142.929 221.817 136.9 216.17 131.413C210.462 125.926 190.849 106.417 189.27 99.0327C187.631 91.6488 182.53 42.4004 180.769 39.1488C179.008 35.9649 165.103 28.6488 165.832 25.9391C166.56 23.2294 174.272 25.1262 179.372 26.752C181.619 27.4294 183.744 27.294 185.627 27.4294Z" fill="#F9AE95"/>
<path opacity="0.19" d="M238.454 102.488C237.301 101.742 236.208 101.065 234.872 100.455C221.756 101.268 207.669 90.2263 198.014 85.7553C190.12 82.0295 186.538 51.6811 185.505 41.1134C185.262 38.8102 184.048 36.7779 182.226 35.694L165.771 25.8037C165.042 28.5134 178.947 35.7618 180.708 39.0134C182.469 42.1973 187.509 91.5811 189.209 98.8972L222.12 116.036C222.181 116.104 236.876 106.688 238.454 102.488Z" fill="#F9AE95"/>
<path opacity="0.19" d="M270.151 153.362C272.276 165.962 275.252 175.242 289.643 189.604C304.034 203.965 311.199 204.642 317.817 209.994C324.436 215.346 325.225 222.594 327.776 221.375C331.48 219.613 330.508 225.913 334.698 224.83C338.888 223.746 325.529 206.472 320.246 200.646C314.174 193.939 305.248 185.268 302.333 178.765C298.994 171.313 294.683 152.752 288.61 145.233C280.595 135.342 268.147 141.439 270.151 153.362Z" fill="#F9AE95"/>
<path d="M218.234 102.284C218.234 102.284 221.392 94.8329 234.75 99.1006C248.109 103.301 250.113 123.217 258.553 127.146C266.993 131.143 279.684 132.226 288.732 145.639L286.364 162.101L270.394 165.962C270.394 165.962 253.27 167.588 248.959 160.813C244.648 154.039 237.908 144.759 215.987 134.597C194.188 124.639 218.234 102.284 218.234 102.284Z" fill="#6246F9"/>
<path d="M259.403 152.075C253.999 151.939 251.206 150.246 246.895 146.181C242.583 142.184 241.065 133.175 235.236 131.143C229.407 129.11 226.796 132.091 226.796 132.091L209.065 129.449C210.523 131.481 212.769 133.243 216.109 134.801C238.029 144.894 244.709 154.175 249.081 161.017C253.392 167.791 270.515 166.165 270.515 166.165L270.758 166.097C270.697 166.03 264.686 152.278 259.403 152.075Z" fill="#593CF5"/>
<path d="M163.342 35.965C166.135 35.5586 168.746 37.794 168.928 40.8424C169.171 43.0102 170.082 46.3295 173.543 49.5811C179.433 55.136 184.23 63.4682 189.209 78.9811C194.188 94.6295 211.373 95.5779 223.395 98.0166C235.418 100.523 243.312 115.02 237.726 127.078C232.139 139.271 216.412 136.291 209.976 131.955C203.54 127.62 181.073 112.31 178.279 105.468C175.486 98.6263 162.613 51.0037 160.306 48.2263C157.998 45.4489 143.182 41.0456 143.486 38.2682C143.79 35.4908 151.623 35.7618 156.966 36.4392C159.334 36.7102 161.46 36.1682 163.342 35.965Z" fill="#F9AE95"/>
<path d="M293.832 146.859C293.832 146.859 290.736 148.62 288.61 147.13C284.056 143.81 279.988 134.394 264.382 134.462C251.57 134.462 258.675 158.375 268.39 165.013C275.009 169.484 288.732 162.168 298.326 161.152C302.333 160.746 293.832 146.859 293.832 146.859Z" fill="#F9AE95"/>
<path opacity="0.27" d="M300.208 117.188C300.937 115.765 302.455 114.546 304.276 113.801C299.722 111.701 292.861 113.462 290.918 117.188C287.639 123.42 295.593 128.907 295.593 128.907C295.593 128.907 298.447 131.955 301.605 132.226C300.208 128.704 297.901 121.659 300.208 117.188Z" fill="#473830"/>
<path d="M319.518 152.007C322.675 140.965 319.214 129.855 311.745 127.213C304.277 124.571 295.654 131.346 292.497 142.32C289.339 153.362 292.8 164.471 300.269 167.113C307.738 169.823 316.36 163.049 319.518 152.007Z" fill="#F9AE95"/>
<path opacity="0.41" d="M294.136 161.897C295.654 164.404 297.719 166.301 300.208 167.113C300.572 167.249 301.058 167.384 301.423 167.452C294.986 158.578 298.326 139.543 300.815 129.313C297.172 132.023 294.075 136.562 292.497 142.252C292.132 143.607 291.829 144.962 291.586 146.317C290.614 146.046 289.46 145.707 288.428 145.368C290.068 153.836 286.364 162.101 286.364 162.101L286.303 163.93C289.035 163.252 291.646 162.439 294.136 161.897Z" fill="#F9AE95"/>
<path d="M322.068 135.884C322.068 135.884 324.193 146.113 316.664 145.639C309.134 145.165 307.495 137.713 302.637 140.83C297.84 143.946 292.375 152.752 288.61 147.265C284.906 141.778 287.396 125.113 297.779 123.013C308.284 120.846 315.996 120.913 322.068 135.884Z" fill="#473830"/>
<path opacity="0.3" d="M268.451 165.013C269.119 165.42 269.908 165.758 270.637 166.029L279.259 163.929L282.72 156.207C282.72 156.207 269.483 157.223 259.282 152.007C260.861 157.155 265.84 163.184 268.451 165.013Z" fill="#F9AE95"/>
<path d="M268.026 150.042C266.447 161.22 268.269 173.007 282.417 189.468C295.836 204.913 302.151 207.284 308.284 213.381C314.356 219.546 314.356 226.794 316.907 226.049C320.793 224.762 319.092 230.926 323.404 230.452C327.715 229.978 316.178 211.01 311.624 204.507C306.341 197.055 298.386 187.233 296.14 180.391C293.65 172.601 291.282 153.497 286.06 145.233C279.077 134.123 269.544 139.407 268.026 150.042Z" fill="#F9AE95"/>
<path opacity="0.19" d="M225.339 128.704C217.931 124.978 192.063 111.43 188.359 104.452C184.594 97.4069 165.528 47.9553 162.796 45.1779C160.306 42.6715 146.34 40.165 143.911 37.4553C143.668 37.7263 143.608 37.9295 143.547 38.2005C143.243 40.9779 158.12 45.3811 160.367 48.1585C162.613 50.936 175.547 98.5585 178.34 105.4C181.133 112.242 203.6 127.62 210.037 131.888C215.623 135.613 228.314 138.391 235.175 130.939C231.35 130.871 227.767 129.923 225.339 128.704Z" fill="#F9AE95"/>
<path opacity="0.19" d="M318.667 222.459C316.117 223.407 315.935 216.023 309.62 210.13C303.426 204.236 297.051 202.068 283.145 186.962C271.305 174.023 267.661 163.862 267.479 154.513C267.054 164.404 269.969 175.242 282.356 189.401C295.775 204.846 302.091 207.217 308.223 213.313C314.296 219.478 314.296 226.726 316.846 225.981C320.732 224.694 319.032 230.859 323.343 230.384C324.497 230.249 324.497 228.759 323.768 226.523C321.278 225.71 322.007 221.307 318.667 222.459Z" fill="#F9AE95"/>
<path opacity="0.27" d="M297.901 122.946C287.517 125.046 284.967 141.71 288.732 147.197C291.889 151.871 296.322 146.181 300.572 142.455C301.605 139.271 301.24 135.004 300.937 129.449C300.755 126.4 301.665 123.962 302.819 122.2C301.24 122.268 299.54 122.607 297.901 122.946Z" fill="#473830"/>
<path d="M303.426 141.507C303.426 141.507 305.794 136.291 301.24 136.291C296.686 136.291 295.047 145.368 299.419 146.384" fill="#F9AE95"/>
<path opacity="0.17" d="M379.085 261.749C309.134 261.749 252.481 250.097 252.481 235.736V235.668C252.542 230.317 249.445 225.778 245.134 225.304C200.625 219.884 170.871 209.859 170.871 198.41C170.871 190.891 183.987 183.846 205.726 178.562C210.219 177.478 264.625 171.991 263.472 166.707C214.895 163.049 129.095 178.562 129.095 187.775C129.095 188.249 129.156 188.723 129.399 189.197C131.342 194.278 128.427 200.104 123.509 201.188C101.77 206.065 88.6547 212.433 88.6547 219.342C88.6547 229.775 118.469 238.852 162.917 243.865C167.228 244.339 170.325 248.539 170.264 253.349V253.417C170.264 266.491 226.978 277.194 296.868 277.194C353.582 277.194 400.945 268.794 417.097 259.175C404.892 259.988 392.566 261.749 379.085 261.749Z" fill="#1D71AA"/>
<path opacity="0.29" d="M287.274 203.559C279.988 207.284 317.089 212.771 333.423 208.639C349.817 204.507 328.869 199.426 328.869 199.426H347.692L362.387 224.017C362.387 224.017 355.04 254.839 328.808 249.623C302.576 244.407 308.891 244.949 297.354 243.797C285.756 242.646 271.123 229.436 271.123 229.436L287.274 203.559Z" fill="#059CBD"/>
<path d="M327.897 199.426C330.751 199.9 333.605 200.578 336.337 201.865C337.005 202.204 337.673 202.542 338.28 203.152C338.584 203.423 338.888 203.762 339.131 204.304C339.373 204.778 339.373 205.659 339.07 206.133C338.766 206.607 338.463 206.946 338.098 207.217C337.795 207.488 337.43 207.691 337.066 207.894C336.398 208.3 335.73 208.571 334.941 208.842C329.233 210.875 323.404 211.213 317.574 211.281C311.745 211.281 305.977 210.875 300.208 209.926C297.354 209.52 294.44 208.91 291.646 208.165C290.189 207.759 288.853 207.352 287.457 206.742C286.789 206.404 286.121 206.065 285.513 205.591C285.331 205.388 285.21 205.252 285.149 205.117C285.088 204.846 285.088 204.642 285.21 204.439C285.453 204.1 285.817 203.965 286.121 203.762C285.817 203.965 285.513 204.168 285.392 204.507C285.271 204.846 285.453 205.184 285.756 205.32C286.303 205.726 287.031 205.997 287.639 206.133C288.975 206.539 290.432 206.878 291.829 207.081C294.622 207.555 297.536 207.894 300.33 208.165C303.183 208.436 306.037 208.639 308.891 208.775C311.745 208.978 314.599 209.046 317.453 208.978C320.307 208.978 323.161 208.91 326.015 208.639C328.808 208.368 331.601 207.962 334.334 207.149C335.001 207.013 335.669 206.742 336.277 206.404C336.884 206.133 337.491 205.726 337.734 205.388C337.795 205.184 337.916 205.117 337.795 204.913C337.734 204.71 337.552 204.439 337.37 204.236C336.945 203.762 336.337 203.423 335.73 202.949C333.423 201.391 330.63 200.375 327.897 199.426Z" fill="#59A8DD"/>
<path d="M343.26 220.765C339.799 221.171 336.277 221.51 332.816 221.781C329.354 222.052 325.833 222.188 322.372 222.255C315.389 222.459 308.345 222.255 301.362 221.849C297.901 221.578 294.379 221.171 290.918 220.765C287.457 220.291 283.935 219.749 280.534 218.936C277.134 218.123 273.734 217.175 270.394 215.752C268.815 215.007 267.115 214.126 265.901 212.636C265.597 212.229 265.354 211.823 265.293 211.281C265.233 210.739 265.475 210.265 265.658 209.858C266.265 209.113 266.994 208.571 267.844 208.233C267.115 208.639 266.326 209.249 265.779 209.994C265.536 210.4 265.415 210.807 265.475 211.281C265.536 211.688 265.779 212.094 266.083 212.433C267.297 213.788 268.937 214.533 270.576 215.21C273.855 216.565 277.255 217.378 280.656 218.055C287.457 219.41 294.44 220.223 301.423 220.765C308.406 221.375 315.389 221.51 322.372 221.51C325.833 221.51 329.354 221.442 332.816 221.307C336.337 221.104 339.799 220.9 343.26 220.765Z" fill="#59A8DD"/>
<path d="M347.935 198.749C350 198.681 352.004 198.817 354.007 199.02C356.072 199.223 358.015 199.494 360.079 199.833C362.144 200.171 364.087 200.646 366.091 201.323C368.034 202 370.038 202.746 371.859 203.965C372.77 204.575 373.62 205.32 374.288 206.336C374.592 206.81 374.896 207.488 374.896 208.165C374.956 208.842 374.774 209.52 374.47 210.129C373.863 211.213 372.952 211.959 372.102 212.568C371.192 213.178 370.281 213.652 369.309 214.194C365.544 215.955 361.476 216.971 357.59 217.852C359.533 217.175 361.476 216.565 363.419 215.82C365.302 215.142 367.184 214.397 369.006 213.381C369.916 212.907 370.766 212.365 371.556 211.755C372.406 211.146 373.135 210.4 373.62 209.588C374.045 208.775 373.985 207.826 373.438 207.081C372.892 206.268 372.163 205.659 371.313 205.049C369.673 203.965 367.73 203.22 365.848 202.407C363.966 201.729 361.962 201.255 360.019 200.713C358.076 200.239 356.072 199.9 354.007 199.562C351.943 199.155 349.878 198.952 347.935 198.749Z" fill="#59A8DD"/>
<path d="M343.26 220.765C339.799 221.171 336.277 221.51 332.816 221.781C329.354 222.052 325.833 222.188 322.372 222.255C315.389 222.459 308.345 222.255 301.362 221.849C297.901 221.578 294.379 221.171 290.918 220.765C287.457 220.291 283.935 219.749 280.534 218.936C277.134 218.123 273.734 217.175 270.394 215.752C268.815 215.007 267.115 214.126 265.901 212.636C265.597 212.229 265.354 211.823 265.293 211.281C265.233 210.739 265.475 210.265 265.658 209.858C266.265 209.113 266.994 208.571 267.844 208.233C267.115 208.639 266.326 209.249 265.779 209.994C265.536 210.4 265.415 210.807 265.475 211.281C265.536 211.688 265.779 212.094 266.083 212.433C267.297 213.788 268.937 214.533 270.576 215.21C273.855 216.565 277.255 217.378 280.656 218.055C287.457 219.41 294.44 220.223 301.423 220.765C308.406 221.375 315.389 221.51 322.372 221.51C325.833 221.51 329.354 221.442 332.816 221.307C336.337 221.104 339.799 220.9 343.26 220.765Z" fill="#59A8DD"/>
<path d="M198.985 190.213C172.025 190.213 150.165 198.817 150.165 212.094C150.165 223.339 162.674 237.565 198.985 237.565C234.022 237.565 247.806 223.339 247.806 212.094C247.684 198.004 225.885 190.213 198.985 190.213ZM198.985 212.975C184.23 212.975 172.207 209.249 172.207 204.71C172.207 200.171 184.169 196.446 198.985 196.446C213.741 196.446 225.764 200.171 225.764 204.71C225.703 209.249 213.741 212.975 198.985 212.975Z" fill="#6246F9"/>
<path d="M177.369 209.587C182.226 207.555 190.12 206.2 198.925 206.2C207.729 206.2 215.623 207.555 220.481 209.587C223.76 208.233 225.703 206.539 225.703 204.71C225.703 200.171 213.741 196.446 198.925 196.446C184.169 196.446 172.147 200.171 172.147 204.71C172.207 206.539 174.09 208.233 177.369 209.587Z" fill="#412CB1"/>
<path opacity="0.59" d="M208.579 193.804C208.579 193.804 222.545 192.517 232.382 199.968L208.579 193.804Z" fill="white"/>
<path d="M198.985 206.268C207.729 206.268 215.502 207.555 220.359 209.588C221.027 208.842 221.392 207.894 221.392 207.081C221.392 202.542 211.312 198.817 198.864 198.817C186.416 198.817 176.336 202.542 176.336 207.081C176.336 207.894 176.701 208.842 177.369 209.588C182.408 207.555 190.181 206.268 198.985 206.268Z" fill="#2C1C7C"/>
<g opacity="0.4">
<path opacity="0.4" d="M225.339 199.833C225.278 199.968 225.096 200.171 224.974 200.307C225.096 200.307 225.217 200.036 225.339 199.833Z" fill="#88CB94"/>
<path opacity="0.4" d="M225.703 198.546C225.703 198.749 225.703 198.952 225.642 199.155C225.642 198.817 225.703 198.681 225.703 198.546Z" fill="#88CB94"/>
<path opacity="0.4" d="M224.367 201.052C224.61 200.849 224.731 200.713 224.914 200.442C224.731 200.713 224.61 200.849 224.367 201.052Z" fill="#88CB94"/>
<path opacity="0.4" d="M223.699 201.662C223.699 201.662 223.76 201.662 223.699 201.662C223.942 201.526 224.063 201.323 224.246 201.255C224.124 201.323 223.881 201.459 223.699 201.662Z" fill="#88CB94"/>
<path opacity="0.4" d="M247.38 209.046C244.952 219.613 230.682 231.265 198.925 231.265C166.196 231.265 152.837 219.681 150.469 209.181C150.226 210.13 150.105 211.01 150.105 212.026C150.105 223.271 162.613 237.497 198.925 237.497C233.961 237.497 247.745 223.271 247.745 212.026C247.684 211.078 247.623 210.062 247.38 209.046Z" fill="#88CB94"/>
</g>
<defs>
<linearGradient id="paint0_linear" x1="422.602" y1="74.9471" x2="354.38" y2="57.5374" gradientUnits="userSpaceOnUse">
<stop stop-color="#0A6373"/>
<stop offset="1" stop-color="#3ED1D1"/>
</linearGradient>
<linearGradient id="paint1_linear" x1="193.516" y1="74.5825" x2="277.267" y2="122.088" gradientUnits="userSpaceOnUse">
<stop stop-color="white"/>
<stop offset="1" stop-color="#FFE8B8"/>
</linearGradient>
<linearGradient id="paint2_linear" x1="282.619" y1="64.2876" x2="355.018" y2="159.962" gradientUnits="userSpaceOnUse">
<stop stop-color="white"/>
<stop offset="1" stop-color="#FFE8B8"/>
</linearGradient>
<linearGradient id="paint3_linear" x1="390.561" y1="188.298" x2="403.205" y2="93.71" gradientUnits="userSpaceOnUse">
<stop stop-color="#F7CE8F"/>
<stop offset="1" stop-color="#D97D61"/>
</linearGradient>
<linearGradient id="paint4_linear" x1="291.524" y1="90.9791" x2="294.608" y2="8.05031" gradientUnits="userSpaceOnUse">
<stop stop-color="#D95E36"/>
<stop offset="1" stop-color="#80331A"/>
</linearGradient>
<linearGradient id="paint5_linear" x1="274.153" y1="48.0951" x2="294.32" y2="59.4191" gradientUnits="userSpaceOnUse">
<stop stop-color="white"/>
<stop offset="1" stop-color="#FFE8B8"/>
</linearGradient>
<linearGradient id="paint6_linear" x1="132.174" y1="112.454" x2="96.9657" y2="35.2602" gradientUnits="userSpaceOnUse">
<stop stop-color="#2980FF"/>
<stop offset="1" stop-color="#3ED1D1"/>
</linearGradient>
<linearGradient id="paint7_linear" x1="119.778" y1="85.3923" x2="80.3085" y2="36.3799" gradientUnits="userSpaceOnUse">
<stop stop-color="#3EC3D1"/>
<stop offset="1" stop-color="#6CE2EF"/>
</linearGradient>
<linearGradient id="paint8_linear" x1="427.7" y1="161.862" x2="427.588" y2="101.346" gradientUnits="userSpaceOnUse">
<stop stop-color="#0B5C79"/>
<stop offset="1" stop-color="#3EC3D1"/>
</linearGradient>
<linearGradient id="paint9_linear" x1="429.459" y1="172.526" x2="449.6" y2="136.313" gradientUnits="userSpaceOnUse">
<stop stop-color="#3EC3D1"/>
<stop offset="1" stop-color="#6CE2EF"/>
</linearGradient>
<linearGradient id="paint10_linear" x1="441.916" y1="114.116" x2="399.882" y2="37.2775" gradientUnits="userSpaceOnUse">
<stop stop-color="#2980FF"/>
<stop offset="1" stop-color="#3ED1D1"/>
</linearGradient>
<linearGradient id="paint11_linear" x1="426.608" y1="79.7605" x2="388.432" y2="45.0795" gradientUnits="userSpaceOnUse">
<stop stop-color="#3EC3D1"/>
<stop offset="1" stop-color="#6CE2EF"/>
</linearGradient>
</defs>
</svg>
